<svg fill="none" viewBox="0 0 100 22" xmlns="http://www.w3.org/2000/svg">
  <path d="M4.81652 0.63947H0V0.77428C0.840364 0.999207 0.885056 1.26956 0.885056 4.88525V7.63127C0.885056 11.247 0.840364 11.5173 0 11.7422V11.8924H3.88604V11.7422C2.9856 11.5173 2.92552 11.247 2.92552 7.63127V6.70079H4.86122C7.51712 6.70079 9.45208 5.68019 9.45208 3.47487C9.45208 1.40437 7.62189 0.63947 4.81652 0.63947ZM4.81652 6.52055H2.92625V0.818972H4.80187C6.36244 0.818972 7.50246 1.49449 7.50246 3.65438C7.50173 5.71023 6.45183 6.52055 4.81652 6.52055Z" fill="#01100D"></path>
  <path d="M12.2882 9.31059V4.35047L9.78253 5.64069V5.80553C10.5027 5.91031 10.5174 5.61797 10.5174 7.50824V9.31059C10.5174 11.3064 10.5027 11.5459 9.76714 11.7416V11.8918H13.0531V11.7416C12.3029 11.5467 12.2882 11.3064 12.2882 9.31059Z" fill="#01100D"></path>
  <path d="M11.3729 3.7799C11.9283 3.7799 12.3782 3.34469 12.3782 2.80472C12.3782 2.26475 11.9283 1.81416 11.3729 1.81416C10.833 1.81416 10.3824 2.26402 10.3824 2.80472C10.3824 3.34543 10.8322 3.7799 11.3729 3.7799Z" fill="#01100D"></path>
  <path d="M16.0668 9.31231V2.52565L13.6211 3.78583V3.96607C14.2966 4.0408 14.2813 3.71989 14.2813 5.38523V9.31304C14.2813 11.3088 14.2666 11.5484 13.5464 11.744V11.8942H16.8324V11.744C16.0814 11.5484 16.0668 11.3081 16.0668 9.31231Z" fill="#01100D"></path>
  <path d="M19.8041 9.31245V0.63113L17.3584 1.89131V2.07154C18.034 2.14628 18.0186 1.92794 18.0186 3.59328V9.31245C18.0186 11.3082 18.0039 11.5478 17.2837 11.7434V11.8936H20.5697V11.7434C19.8195 11.5485 19.8041 11.3082 19.8041 9.31245Z" fill="#01100D"></path>
  <path d="M24.6581 4.67693C23.1576 4.67693 20.8021 5.83234 20.8021 8.38274C20.8021 10.9932 23.1576 12.0585 24.6581 12.0585C26.1732 12.0585 28.5288 10.9932 28.5288 8.38274C28.5295 5.83234 26.1732 4.67693 24.6581 4.67693ZM24.6581 11.879C23.5481 11.879 22.6477 11.0386 22.6477 8.38347C22.6477 5.81769 23.5481 4.84251 24.6581 4.84251C25.7681 4.84251 26.6839 5.81769 26.6839 8.38347C26.6839 11.0386 25.7688 11.879 24.6581 11.879Z" fill="#01100D"></path>
  <path d="M37.3849 4.99172C38.0604 5.08184 38.2853 5.3815 37.6699 6.85195L36.3042 10.1079L34.8946 6.52225C34.4147 5.3368 34.4894 5.08184 34.9393 4.99172V4.84152H32.1185V4.99172C32.4636 5.09649 32.6438 5.29211 33.1538 6.56694L33.6036 7.72235L32.4636 10.168L30.9932 6.52225C30.4979 5.27673 30.588 5.06718 31.0232 4.99172V4.84152H28.2325V4.99172C28.5475 5.09649 28.7124 5.26207 29.223 6.56694L31.4137 11.9835H31.8189L33.7091 7.96267L35.2997 11.9835H35.7196L37.8802 6.85195C38.5557 5.26134 38.7205 5.11114 39.1257 4.99172V4.84152H37.3849V4.99172Z" fill="#01100D"></path>
  <path d="M42.9825 11.7142C42.2623 11.7142 42.1721 11.2489 42.1721 10.1235V5.05205H43.7774V4.84178H42.1721V2.24669H42.0073C41.6475 3.88199 40.657 4.73701 39.802 4.87255V5.05279H40.4174V10.3792C40.4174 11.2943 41.0028 12.0446 42.3678 12.0446C43.3283 12.0446 43.7181 11.6695 43.9283 11.4291L43.8082 11.309C43.6125 11.5193 43.3422 11.7142 42.9825 11.7142Z" fill="#01100D"></path>
  <path d="M50.9979 11.6407C50.548 11.6407 50.4425 11.4304 50.4425 10.1702V6.66002C50.4425 5.05475 48.7618 4.72432 47.5016 4.72432C45.478 4.72432 44.6853 5.30166 44.6853 6.04605C44.6853 6.58602 45.1351 7.02122 45.6758 7.02122C46.3931 7.02122 46.6649 6.58822 46.6649 6.14349C46.6649 5.6614 46.4898 4.89796 47.5302 4.89796C48.29 4.89796 48.6871 5.24818 48.6871 5.93981V6.93037C48.6871 7.39561 48.342 7.71065 47.6218 8.01031L46.8715 8.32536C45.2809 8.97083 44.3959 9.33057 44.3959 10.3959C44.3959 11.3864 45.2209 12.0312 46.5111 12.0312C47.8357 12.0312 48.7164 10.9512 48.7164 10.9512C48.8365 11.6114 49.2864 11.9718 50.3217 11.9718C50.9671 11.9718 51.2822 11.7615 51.417 11.6714L51.3723 11.5366C51.2536 11.596 51.1481 11.6407 50.9979 11.6407ZM48.6878 10.7256C48.6878 10.7256 47.9075 11.626 47.1873 11.626C46.5118 11.626 46.1667 11.056 46.1667 10.1109C46.1667 9.16572 46.4217 8.71587 47.2621 8.37005L47.6372 8.2052C48.2372 7.95024 48.5523 7.72531 48.6871 7.51503V10.7256H48.6878Z" fill="#01100D"></path>
  <path d="M54.2043 9.31517V2.48383L51.7586 3.74401V3.92424C52.4341 3.99897 52.4188 4.07444 52.4188 5.73978V9.31517C52.4188 11.3109 52.4041 11.5505 51.6839 11.7461V11.8963H54.9699V11.7461C54.2196 11.5513 54.2043 11.3109 54.2043 9.31517Z" fill="#01100D"></path>
  <path d="M62.425 11.114L59.2892 7.31812L61.0747 5.96782C61.8096 5.41246 62.3503 5.12746 62.7855 4.99265V4.84245H60.8498V4.99265C61.3751 5.05273 61.54 5.39781 60.9099 5.86305L57.9243 8.11379V0.617188L55.4186 1.87737V2.0576C56.1388 2.16237 56.1534 2.2078 56.1534 4.14349V9.31389C56.1534 11.3097 56.1388 11.5492 55.4633 11.7449V11.8951H58.6738V11.7449C57.9389 11.55 57.9235 11.3097 57.9235 9.31389V8.2486L60.0541 10.829C60.5494 11.4144 60.4439 11.6841 59.9794 11.7441V11.8943H63.2053V11.7441C62.9357 11.654 62.7855 11.5639 62.425 11.114Z" fill="#01100D"></path>
  <path d="M66.8365 0.63947H64.0905V0.77428C64.9309 1.02925 64.9755 1.26956 64.9755 4.88525V7.63127C64.9755 11.247 64.9309 11.5019 64.0905 11.7422V11.8924H66.8365C72.4025 11.8924 74.8335 9.56696 74.8335 6.11612C74.8335 2.4997 72.1029 0.63947 66.8365 0.63947ZM66.8365 11.7269H66.2211V0.818972H66.8365C70.9328 0.818972 73.4678 1.95899 73.4678 6.1C73.4678 10.0769 71.3673 11.7269 66.8365 11.7269Z" fill="#01100D"></path>
  <path d="M81.8852 7.07639C81.6001 5.35097 80.2645 4.69084 78.9296 4.69084C77.309 4.69084 75.3586 5.98105 75.3586 8.35195C75.3586 10.8276 77.2789 12.0431 79.1245 12.0431C80.3246 12.0431 81.1803 11.6834 81.765 11.128L81.6749 10.9778C81.1195 11.4877 80.3546 11.7728 79.4395 11.7728C77.8943 11.7728 76.5741 11.0379 76.5741 8.38199C76.5741 7.88671 76.6188 7.45151 76.7089 7.07639H81.8852ZM78.9296 4.87107C79.83 4.87107 80.6851 5.27623 80.8052 6.89688H76.7389C77.1287 5.4257 78.0892 4.87107 78.9296 4.87107Z" fill="#01100D"></path>
  <path d="M99.3245 9.3131V6.68797C99.3245 5.33767 98.6944 4.72223 97.3888 4.72223C96.5484 4.72223 95.7681 5.26221 94.9732 5.98241L94.6281 6.29746C94.508 5.20213 93.8632 4.72223 92.7225 4.72223C91.8821 4.72223 91.0872 5.27759 90.3069 5.98241L89.9764 6.28281V4.70758L88.0862 5.62268V5.78753C88.8364 5.8923 88.821 5.92234 88.821 7.82799V9.3131C88.821 11.3089 88.8064 11.5485 88.1309 11.7441V11.8943H90.7267V11.7441C89.9918 11.5492 89.9764 11.3089 89.9764 9.3131V6.52239L90.3069 6.22199C91.1619 5.44171 91.7773 5.03655 92.3627 5.03655C93.0382 5.03655 93.4881 5.39628 93.4881 6.40223V9.3131C93.4881 11.3089 93.4734 11.5485 92.7232 11.7441V11.8943H95.319V11.7441C94.6435 11.5492 94.6435 11.3089 94.6435 9.3131V6.52239L94.9739 6.22199C95.8443 5.44171 96.4444 5.03655 97.0444 5.03655C97.7046 5.03655 98.1698 5.39628 98.1698 6.40223V9.3131C98.1698 11.3089 98.1398 11.5485 97.3895 11.7441V11.8943H100V11.7441C99.3098 11.5492 99.3245 11.3089 99.3245 9.3131Z" fill="#01100D"></path>
  <path d="M87.1751 4.72053C86.3348 4.72053 85.5398 5.27589 84.7596 5.98071L84.4291 6.28111V4.70588L82.5389 5.62098V5.78583C83.2891 5.8906 83.2737 5.92063 83.2737 7.82629V9.3114C83.2737 11.3072 83.2591 11.5468 82.5835 11.7424V11.8926H85.1794V11.7424C84.4445 11.5475 84.4291 11.3072 84.4291 9.3114V6.52069L84.7596 6.22029C84.7596 6.22029 85.8322 5.20043 86.2725 5.20043C86.7788 5.20043 86.8711 5.75945 87.2462 5.75945C87.5657 5.75945 87.7913 5.5184 87.7913 5.21874C87.7913 4.96378 87.6111 4.72053 87.1751 4.72053Z" fill="#01100D"></path>
  <path d="M19.9607 17.8454C20.7879 17.8454 21.1725 18.2058 21.1725 18.7311C21.1725 19.1253 20.9732 19.3927 20.5835 19.5393V19.5488C21.026 19.6506 21.2502 19.9232 21.2502 20.3613C21.2502 20.9401 20.8121 21.3108 20.0581 21.3108H18.7687V17.8461H19.9607V17.8454ZM19.3533 19.3143H19.9277C20.4091 19.3143 20.6091 19.1392 20.6091 18.8176C20.6091 18.4916 20.4142 18.326 19.957 18.326H19.3541V19.3143H19.3533ZM19.971 20.8229C20.4479 20.8229 20.6567 20.6529 20.6567 20.3071C20.6567 19.9657 20.4523 19.781 19.9314 19.781H19.3526V20.8229H19.971Z" fill="#01100D"></path>
  <path d="M23.2118 21.3101H22.6279V19.9181L21.411 17.8454H22.0733L22.4528 18.5311C22.6133 18.8235 22.7686 19.1253 22.9151 19.4264H22.9246C23.0712 19.1246 23.2265 18.8235 23.3921 18.5311L23.7665 17.8454H24.4237L23.2118 19.9181V21.3101Z" fill="#01100D"></path>
  <path d="M27.5385 17.8461C28.6968 17.8461 29.3533 18.4688 29.3533 19.5781C29.3533 20.6873 28.6968 21.3101 27.5385 21.3101H26.4292V17.8454H27.5385V17.8461ZM27.008 20.8038H27.5282C28.3364 20.8038 28.7496 20.3855 28.7496 19.5781C28.7496 18.7707 28.3364 18.3524 27.5282 18.3524H27.008V20.8038Z" fill="#01100D"></path>
  <path d="M31.3886 17.8461C32.2399 17.8461 32.6246 18.2014 32.6246 18.8044C32.6246 19.2381 32.3762 19.5634 31.982 19.6609V19.6704C32.2304 19.7532 32.3425 19.899 32.4978 20.332L32.8532 21.3101H32.2157L31.9234 20.439C31.7871 20.0492 31.6362 19.9181 31.2809 19.9181H30.7797V21.3101H30.1958V17.8454H31.3886V17.8461ZM31.3593 19.4418C31.8413 19.4418 32.0406 19.2081 32.0355 18.863C32.0355 18.493 31.782 18.3274 31.3248 18.3274H30.7797V19.4418H31.3593Z" fill="#01100D"></path>
  <path d="M33.4324 21.3097V20.6188H34.075V21.3097H33.4324Z" fill="#01100D"></path>
  <path d="M38.6109 18.9106H38.0226C38.0226 18.4725 37.7742 18.249 37.3266 18.249C36.9522 18.249 36.7185 18.4293 36.7185 18.7106C36.7185 19.0271 36.9573 19.1246 37.5119 19.2608C38.164 19.4213 38.7091 19.592 38.7091 20.3217C38.7091 20.9643 38.1933 21.3826 37.4145 21.3826C36.5778 21.3826 36.0664 20.9599 36.0664 20.1664H36.665C36.665 20.6632 36.9375 20.9005 37.4189 20.9005C37.8519 20.9005 38.1047 20.7013 38.1047 20.3752C38.1047 20.025 37.8512 19.9473 37.3214 19.8162C36.665 19.6499 36.1191 19.4902 36.1191 18.7648C36.1191 18.1758 36.6012 17.7728 37.3354 17.7728C38.1779 17.7721 38.6109 18.1662 38.6109 18.9106Z" fill="#01100D"></path>
  <path d="M41.745 19.7627H40.1492V21.3101H39.5653V17.8454H40.1492V19.2565H41.745V17.8454H42.3238V21.3101H41.745V19.7627Z" fill="#01100D"></path>
  <path d="M43.9886 19.2909H45.6136V19.792H43.9886V20.8038H45.7697V21.3101H43.4047V17.8454H45.7213V18.3516H43.9886V19.2909Z" fill="#01100D"></path>
  <path d="M47.8577 17.8461C48.7091 17.8461 49.0937 18.2014 49.0937 18.8044C49.0937 19.2381 48.8453 19.5634 48.4512 19.6609V19.6704C48.6995 19.7532 48.8116 19.899 48.967 20.332L49.3223 21.3101H48.6849L48.3926 20.439C48.2563 20.0492 48.1054 19.9181 47.75 19.9181H47.2489V21.3101H46.6649V17.8454H47.8577V17.8461ZM47.8277 19.4418C48.3098 19.4418 48.5091 19.2081 48.5039 18.863C48.5039 18.493 48.2504 18.3274 47.7932 18.3274H47.2481V19.4418H47.8277Z" fill="#01100D"></path>
  <path d="M50.6474 19.2909H52.2724V19.792H50.6474V20.8038H52.4285V21.3101H50.0634V17.8454H52.3794V18.3516H50.6474V19.2909Z" fill="#01100D"></path>
  <path d="M53.9069 19.2909H55.5327V19.792H53.9069V20.8038H55.688V21.3101H53.3237V17.8454H55.6404V18.3516H53.9069V19.2909Z" fill="#01100D"></path>
  <path d="M58.6127 21.3081L57.8632 19.8581C57.6104 19.3665 57.3621 18.8654 57.1283 18.3686H57.1188C57.1379 18.894 57.1481 19.4193 57.1481 19.9453V21.3073H56.584V17.8426H57.4258L58.1702 19.2925C58.423 19.7841 58.6713 20.2853 58.9043 20.782H58.9138C58.8999 20.2567 58.8897 19.7307 58.8897 19.2053V17.8433H59.4487V21.3081H58.6127Z" fill="#01100D"></path>
  <path d="M61.1153 19.2909H62.7411V19.792H61.1153V20.8038H62.8964V21.3101H60.5321V17.8454H62.8488V18.3516H61.1153V19.2909Z" fill="#01100D"></path>
  <path d="M65.1304 21.3101V17.8454H65.7143V21.3101H65.1304Z" fill="#01100D"></path>
  <path d="M67.8997 17.8461C69.0581 17.8461 69.7145 18.4688 69.7145 19.5781C69.7145 20.6873 69.0581 21.3101 67.8997 21.3101H66.7905V17.8454H67.8997V17.8461ZM67.37 20.8038H67.8902C68.6983 20.8038 69.1123 20.3855 69.1123 19.5781C69.1123 18.7707 68.6983 18.3524 67.8902 18.3524H67.37V20.8038Z" fill="#01100D"></path>
  <path d="M71.7507 17.8461C72.602 17.8461 72.9874 18.2014 72.9874 18.8044C72.9874 19.2381 72.739 19.5634 72.3449 19.6609V19.6704C72.5925 19.7532 72.7053 19.899 72.8607 20.332L73.216 21.3101H72.5793L72.287 20.439C72.1507 20.0492 72.0005 19.9181 71.6452 19.9181H71.144V21.3101H70.5601V17.8454H71.7507V17.8461ZM71.7214 19.4418C72.2027 19.4418 72.4027 19.2081 72.3976 18.863C72.3976 18.493 72.1441 18.3274 71.6869 18.3274H71.1418V19.4418H71.7214Z" fill="#01100D"></path>
  <path d="M73.9556 21.3101V17.8454H74.5396V21.3101H73.9556Z" fill="#01100D"></path>
  <path d="M77.896 18.9106H77.3069C77.3069 18.4725 77.0593 18.249 76.6116 18.249C76.2365 18.249 76.0028 18.4293 76.0028 18.7106C76.0028 19.0271 76.2416 19.1246 76.7962 19.2608C77.4483 19.4213 77.9934 19.592 77.9934 20.3217C77.9934 20.9643 77.4769 21.3826 76.6988 21.3826C75.8621 21.3826 75.3507 20.9599 75.3507 20.1664H75.9493C75.9493 20.6632 76.2211 20.9005 76.7032 20.9005C77.1362 20.9005 77.389 20.7013 77.389 20.3752C77.389 20.025 77.1362 19.9473 76.6057 19.8162C75.9493 19.6499 75.4034 19.4902 75.4034 18.7648C75.4034 18.1758 75.8848 17.7728 76.6197 17.7728C77.463 17.7721 77.896 18.1662 77.896 18.9106Z" fill="#01100D"></path>
  <path d="M81.1326 18.9106H80.5435C80.5435 18.4725 80.2959 18.249 79.8482 18.249C79.4731 18.249 79.2394 18.4293 79.2394 18.7106C79.2394 19.0271 79.4782 19.1246 80.0329 19.2608C80.6849 19.4213 81.23 19.592 81.23 20.3217C81.23 20.9643 80.7135 21.3826 79.9354 21.3826C79.0987 21.3826 78.5873 20.9599 78.5873 20.1664H79.1859C79.1859 20.6632 79.4577 20.9005 79.9398 20.9005C80.3728 20.9005 80.6256 20.7013 80.6256 20.3752C80.6256 20.025 80.3728 19.9473 79.8424 19.8162C79.1859 19.6499 78.6401 19.4902 78.6401 18.7648C78.6401 18.1758 79.1214 17.7728 79.8563 17.7728C80.6996 17.7721 81.1326 18.1662 81.1326 18.9106Z" fill="#01100D"></path>
</svg>